<svg width="160" height="154" viewBox="0 0 160 154" fill="none" xmlns="http://www.w3.org/2000/svg">
<g opacity="0.5">
<path d="M160 77C160 119.526 124.183 154 80 154C35.8172 154 0 119.526 0 77C0 34.4741 35.8172 0 80 0C124.183 0 160 34.4741 160 77Z" fill="url(#paint0_linear_22_5)"/>
<path d="M160 77C160 119.526 124.183 154 80 154C35.8172 154 0 119.526 0 77C0 34.4741 35.8172 0 80 0C124.183 0 160 34.4741 160 77Z" fill="black" fill-opacity="0.2"/>
<path d="M160 77C160 119.526 124.183 154 80 154C35.8172 154 0 119.526 0 77C0 34.4741 35.8172 0 80 0C124.183 0 160 34.4741 160 77Z" fill="url(#paint1_linear_22_5)"/>
</g>
<defs>
<linearGradient id="paint0_linear_22_5" x1="5" y1="91" x2="168.5" y2="131" gradientUnits="userSpaceOnUse">
<stop stop-color="#F2FF00"/>
<stop offset="1" stop-color="#FF00F7"/>
</linearGradient>
<linearGradient id="paint1_linear_22_5" x1="61.5" y1="-2.20408e-06" x2="143" y2="123" gradientUnits="userSpaceOnUse">
<stop stop-color="#FF0000" stop-opacity="0"/>
<stop offset="1" stop-color="#FF1299"/>
</linearGradient>
</defs>
</svg>
